<mxfile host="Electron" agent="Mozilla/5.0 (Windows NT 10.0; Win64; x64) AppleWebKit/537.36 (KHTML, like Gecko) draw.io/28.1.2 Chrome/138.0.7204.243 Electron/37.4.0 Safari/537.36" version="28.1.2">
  <diagram name="Страница — 1" id="3fwq_NLXAVemmrhDMmUx">
    <mxGraphModel dx="2564" dy="1100" grid="1" gridSize="10" guides="1" tooltips="1" connect="1" arrows="1" fold="1" page="1" pageScale="1" pageWidth="827" pageHeight="1169" math="0" shadow="0">
      <root>
        <mxCell id="0" />
        <mxCell id="1" parent="0" />
        <mxCell id="W02XrHth0DL-p3_5b-c8-5" value="Перебор&lt;div&gt;&amp;nbsp;символов в тексте&lt;/div&gt;" style="shape=hexagon;perimeter=hexagonPerimeter2;whiteSpace=wrap;html=1;fixedSize=1;" parent="1" vertex="1">
          <mxGeometry x="240" y="118" width="120" height="80" as="geometry" />
        </mxCell>
        <mxCell id="W02XrHth0DL-p3_5b-c8-6" value="" style="rhombus;whiteSpace=wrap;html=1;" parent="1" vertex="1">
          <mxGeometry x="240" y="218" width="120" height="80" as="geometry" />
        </mxCell>
        <mxCell id="W02XrHth0DL-p3_5b-c8-8" value="Увеличиваем счетчик на 1" style="rounded=0;whiteSpace=wrap;html=1;" parent="1" vertex="1">
          <mxGeometry x="120" y="318" width="120" height="80" as="geometry" />
        </mxCell>
        <mxCell id="W02XrHth0DL-p3_5b-c8-9" value="" style="strokeWidth=2;html=1;shape=mxgraph.flowchart.annotation_1;align=left;pointerEvents=1;" parent="1" vertex="1">
          <mxGeometry x="530" y="18.75" width="50" height="120" as="geometry" />
        </mxCell>
        <mxCell id="W02XrHth0DL-p3_5b-c8-10" value="&lt;span style=&quot;color: rgb(0, 0, 0); font-family: Helvetica; font-size: 12px; font-style: normal; font-variant-ligatures: normal; font-variant-caps: normal; font-weight: 400; letter-spacing: normal; orphans: 2; text-align: center; text-indent: 0px; text-transform: none; widows: 2; word-spacing: 0px; -webkit-text-stroke-width: 0px; white-space: normal; text-decoration-thickness: initial; text-decoration-style: initial; text-decoration-color: initial; float: none; background-color: light-dark(#ffffff, var(--ge-dark-color, #121212)); display: inline !important;&quot;&gt;Символ не является&amp;nbsp;&lt;/span&gt;&lt;div&gt;&lt;span style=&quot;color: rgb(0, 0, 0); font-family: Helvetica; font-size: 12px; font-style: normal; font-variant-ligatures: normal; font-variant-caps: normal; font-weight: 400; letter-spacing: normal; orphans: 2; text-align: center; text-indent: 0px; text-transform: none; widows: 2; word-spacing: 0px; -webkit-text-stroke-width: 0px; white-space: normal; text-decoration-thickness: initial; text-decoration-style: initial; text-decoration-color: initial; float: none; background-color: light-dark(#ffffff, var(--ge-dark-color, #121212)); display: inline !important;&quot;&gt;пробелом,&lt;/span&gt;&lt;div&gt;&lt;span style=&quot;color: rgb(0, 0, 0); font-family: Helvetica; font-size: 12px; font-style: normal; font-variant-ligatures: normal; font-variant-caps: normal; font-weight: 400; letter-spacing: normal; orphans: 2; text-align: center; text-indent: 0px; text-transform: none; widows: 2; word-spacing: 0px; -webkit-text-stroke-width: 0px; white-space: normal; text-decoration-thickness: initial; text-decoration-style: initial; text-decoration-color: initial; float: none; background-color: light-dark(#ffffff, var(--ge-dark-color, #121212)); display: inline !important;&quot;&gt;&amp;nbsp;точкой, запятой&lt;/span&gt;&lt;/div&gt;&lt;/div&gt;" style="text;whiteSpace=wrap;html=1;" parent="1" vertex="1">
          <mxGeometry x="550" y="58.75" width="140" height="40" as="geometry" />
        </mxCell>
        <mxCell id="W02XrHth0DL-p3_5b-c8-11" value="" style="endArrow=none;dashed=1;html=1;rounded=0;entryX=0.813;entryY=0.288;entryDx=0;entryDy=0;entryPerimeter=0;" parent="1" target="W02XrHth0DL-p3_5b-c8-6" edge="1">
          <mxGeometry width="50" height="50" relative="1" as="geometry">
            <mxPoint x="480" y="158" as="sourcePoint" />
            <mxPoint x="390" y="198" as="targetPoint" />
            <Array as="points">
              <mxPoint x="530" y="130" />
            </Array>
          </mxGeometry>
        </mxCell>
        <mxCell id="W02XrHth0DL-p3_5b-c8-12" value="YES" style="text;html=1;align=center;verticalAlign=middle;resizable=0;points=[];autosize=1;strokeColor=none;fillColor=none;" parent="1" vertex="1">
          <mxGeometry x="165" y="226" width="50" height="30" as="geometry" />
        </mxCell>
        <mxCell id="W02XrHth0DL-p3_5b-c8-13" value="NO" style="text;html=1;align=center;verticalAlign=middle;resizable=0;points=[];autosize=1;strokeColor=none;fillColor=none;" parent="1" vertex="1">
          <mxGeometry x="400" y="226" width="40" height="30" as="geometry" />
        </mxCell>
        <mxCell id="W02XrHth0DL-p3_5b-c8-14" value="count&amp;gt;k" style="rhombus;whiteSpace=wrap;html=1;" parent="1" vertex="1">
          <mxGeometry x="400" y="288" width="120" height="80" as="geometry" />
        </mxCell>
        <mxCell id="W02XrHth0DL-p3_5b-c8-15" value="YES" style="text;html=1;align=center;verticalAlign=middle;resizable=0;points=[];autosize=1;strokeColor=none;fillColor=none;" parent="1" vertex="1">
          <mxGeometry x="350" y="298" width="50" height="30" as="geometry" />
        </mxCell>
        <mxCell id="W02XrHth0DL-p3_5b-c8-17" value="k=count" style="rounded=0;whiteSpace=wrap;html=1;" parent="1" vertex="1">
          <mxGeometry x="320" y="398" width="120" height="80" as="geometry" />
        </mxCell>
        <mxCell id="W02XrHth0DL-p3_5b-c8-18" value="count=0" style="rounded=0;whiteSpace=wrap;html=1;" parent="1" vertex="1">
          <mxGeometry x="410" y="518" width="120" height="80" as="geometry" />
        </mxCell>
        <mxCell id="W02XrHth0DL-p3_5b-c8-19" value="" style="endArrow=none;html=1;rounded=0;entryX=0.26;entryY=1.067;entryDx=0;entryDy=0;entryPerimeter=0;" parent="1" source="W02XrHth0DL-p3_5b-c8-6" target="W02XrHth0DL-p3_5b-c8-12" edge="1">
          <mxGeometry width="50" height="50" relative="1" as="geometry">
            <mxPoint x="350" y="448" as="sourcePoint" />
            <mxPoint x="400" y="398" as="targetPoint" />
          </mxGeometry>
        </mxCell>
        <mxCell id="W02XrHth0DL-p3_5b-c8-21" value="" style="endArrow=none;html=1;rounded=0;" parent="1" target="W02XrHth0DL-p3_5b-c8-8" edge="1">
          <mxGeometry width="50" height="50" relative="1" as="geometry">
            <mxPoint x="180" y="258" as="sourcePoint" />
            <mxPoint x="160" y="278" as="targetPoint" />
          </mxGeometry>
        </mxCell>
        <mxCell id="W02XrHth0DL-p3_5b-c8-22" value="" style="endArrow=none;html=1;rounded=0;entryX=0.26;entryY=1.067;entryDx=0;entryDy=0;entryPerimeter=0;" parent="1" edge="1">
          <mxGeometry width="50" height="50" relative="1" as="geometry">
            <mxPoint x="460" y="258" as="sourcePoint" />
            <mxPoint x="360" y="257.66999999999996" as="targetPoint" />
          </mxGeometry>
        </mxCell>
        <mxCell id="W02XrHth0DL-p3_5b-c8-23" value="" style="endArrow=none;html=1;rounded=0;exitX=0.5;exitY=0;exitDx=0;exitDy=0;" parent="1" source="W02XrHth0DL-p3_5b-c8-14" edge="1">
          <mxGeometry width="50" height="50" relative="1" as="geometry">
            <mxPoint x="512" y="268" as="sourcePoint" />
            <mxPoint x="460" y="258" as="targetPoint" />
          </mxGeometry>
        </mxCell>
        <mxCell id="W02XrHth0DL-p3_5b-c8-25" value="" style="endArrow=none;html=1;rounded=0;" parent="1" edge="1">
          <mxGeometry width="50" height="50" relative="1" as="geometry">
            <mxPoint x="400" y="328" as="sourcePoint" />
            <mxPoint x="380" y="328" as="targetPoint" />
          </mxGeometry>
        </mxCell>
        <mxCell id="W02XrHth0DL-p3_5b-c8-26" value="" style="endArrow=none;html=1;rounded=0;entryX=0.545;entryY=0.995;entryDx=0;entryDy=0;entryPerimeter=0;" parent="1" target="W02XrHth0DL-p3_5b-c8-15" edge="1">
          <mxGeometry width="50" height="50" relative="1" as="geometry">
            <mxPoint x="377" y="396" as="sourcePoint" />
            <mxPoint x="370" y="348" as="targetPoint" />
          </mxGeometry>
        </mxCell>
        <mxCell id="W02XrHth0DL-p3_5b-c8-27" value="" style="endArrow=none;html=1;rounded=0;entryX=1;entryY=0.5;entryDx=0;entryDy=0;" parent="1" target="W02XrHth0DL-p3_5b-c8-14" edge="1">
          <mxGeometry width="50" height="50" relative="1" as="geometry">
            <mxPoint x="560" y="328" as="sourcePoint" />
            <mxPoint x="570" y="358" as="targetPoint" />
          </mxGeometry>
        </mxCell>
        <mxCell id="W02XrHth0DL-p3_5b-c8-28" value="" style="endArrow=none;html=1;rounded=0;" parent="1" edge="1">
          <mxGeometry width="50" height="50" relative="1" as="geometry">
            <mxPoint x="560" y="328" as="sourcePoint" />
            <mxPoint x="560" y="498" as="targetPoint" />
          </mxGeometry>
        </mxCell>
        <mxCell id="W02XrHth0DL-p3_5b-c8-29" value="" style="endArrow=none;html=1;rounded=0;entryX=0.5;entryY=1;entryDx=0;entryDy=0;" parent="1" target="W02XrHth0DL-p3_5b-c8-17" edge="1">
          <mxGeometry width="50" height="50" relative="1" as="geometry">
            <mxPoint x="380" y="498" as="sourcePoint" />
            <mxPoint x="370" y="478" as="targetPoint" />
          </mxGeometry>
        </mxCell>
        <mxCell id="W02XrHth0DL-p3_5b-c8-30" value="" style="endArrow=none;html=1;rounded=0;" parent="1" edge="1">
          <mxGeometry width="50" height="50" relative="1" as="geometry">
            <mxPoint x="560" y="498" as="sourcePoint" />
            <mxPoint x="380" y="498" as="targetPoint" />
          </mxGeometry>
        </mxCell>
        <mxCell id="W02XrHth0DL-p3_5b-c8-31" value="" style="endArrow=none;html=1;rounded=0;" parent="1" edge="1">
          <mxGeometry width="50" height="50" relative="1" as="geometry">
            <mxPoint x="472" y="518" as="sourcePoint" />
            <mxPoint x="472" y="498" as="targetPoint" />
          </mxGeometry>
        </mxCell>
        <mxCell id="W02XrHth0DL-p3_5b-c8-32" value="" style="endArrow=none;html=1;rounded=0;exitX=0.5;exitY=1;exitDx=0;exitDy=0;" parent="1" source="W02XrHth0DL-p3_5b-c8-8" edge="1">
          <mxGeometry width="50" height="50" relative="1" as="geometry">
            <mxPoint x="232" y="418" as="sourcePoint" />
            <mxPoint x="180" y="618" as="targetPoint" />
          </mxGeometry>
        </mxCell>
        <mxCell id="W02XrHth0DL-p3_5b-c8-33" value="" style="endArrow=none;html=1;rounded=0;exitX=0.5;exitY=1;exitDx=0;exitDy=0;" parent="1" source="W02XrHth0DL-p3_5b-c8-18" edge="1">
          <mxGeometry width="50" height="50" relative="1" as="geometry">
            <mxPoint x="542" y="608" as="sourcePoint" />
            <mxPoint x="470" y="618" as="targetPoint" />
          </mxGeometry>
        </mxCell>
        <mxCell id="W02XrHth0DL-p3_5b-c8-34" value="" style="endArrow=none;html=1;rounded=0;" parent="1" edge="1">
          <mxGeometry width="50" height="50" relative="1" as="geometry">
            <mxPoint x="470" y="618" as="sourcePoint" />
            <mxPoint x="180" y="618" as="targetPoint" />
          </mxGeometry>
        </mxCell>
        <mxCell id="W02XrHth0DL-p3_5b-c8-35" value="count&amp;gt;k" style="rhombus;whiteSpace=wrap;html=1;" parent="1" vertex="1">
          <mxGeometry x="248.56999999999996" y="660" width="120" height="80" as="geometry" />
        </mxCell>
        <mxCell id="W02XrHth0DL-p3_5b-c8-36" value="" style="endArrow=none;html=1;rounded=0;" parent="1" edge="1">
          <mxGeometry width="50" height="50" relative="1" as="geometry">
            <mxPoint x="248.56999999999996" y="700" as="sourcePoint" />
            <mxPoint x="228.56999999999996" y="700" as="targetPoint" />
          </mxGeometry>
        </mxCell>
        <mxCell id="W02XrHth0DL-p3_5b-c8-37" value="" style="endArrow=none;html=1;rounded=0;entryX=0.545;entryY=0.995;entryDx=0;entryDy=0;entryPerimeter=0;" parent="1" edge="1">
          <mxGeometry width="50" height="50" relative="1" as="geometry">
            <mxPoint x="225.56999999999996" y="768" as="sourcePoint" />
            <mxPoint x="225.56999999999996" y="700" as="targetPoint" />
          </mxGeometry>
        </mxCell>
        <mxCell id="W02XrHth0DL-p3_5b-c8-38" value="" style="endArrow=none;html=1;rounded=0;entryX=1;entryY=0.5;entryDx=0;entryDy=0;" parent="1" target="W02XrHth0DL-p3_5b-c8-35" edge="1">
          <mxGeometry width="50" height="50" relative="1" as="geometry">
            <mxPoint x="408.57" y="700" as="sourcePoint" />
            <mxPoint x="418.57" y="730" as="targetPoint" />
          </mxGeometry>
        </mxCell>
        <mxCell id="W02XrHth0DL-p3_5b-c8-39" value="" style="endArrow=none;html=1;rounded=0;" parent="1" edge="1">
          <mxGeometry width="50" height="50" relative="1" as="geometry">
            <mxPoint x="408.57" y="700" as="sourcePoint" />
            <mxPoint x="408.57" y="870" as="targetPoint" />
          </mxGeometry>
        </mxCell>
        <mxCell id="W02XrHth0DL-p3_5b-c8-40" value="" style="endArrow=none;html=1;rounded=0;entryX=0.5;entryY=1;entryDx=0;entryDy=0;" parent="1" edge="1">
          <mxGeometry width="50" height="50" relative="1" as="geometry">
            <mxPoint x="228.56999999999996" y="870" as="sourcePoint" />
            <mxPoint x="228.56999999999996" y="850" as="targetPoint" />
          </mxGeometry>
        </mxCell>
        <mxCell id="W02XrHth0DL-p3_5b-c8-41" value="" style="endArrow=none;html=1;rounded=0;" parent="1" edge="1">
          <mxGeometry width="50" height="50" relative="1" as="geometry">
            <mxPoint x="408.57" y="870" as="sourcePoint" />
            <mxPoint x="228.56999999999996" y="870" as="targetPoint" />
          </mxGeometry>
        </mxCell>
        <mxCell id="W02XrHth0DL-p3_5b-c8-42" value="k=count" style="rounded=0;whiteSpace=wrap;html=1;" parent="1" vertex="1">
          <mxGeometry x="169.67999999999998" y="770" width="120" height="80" as="geometry" />
        </mxCell>
        <mxCell id="W02XrHth0DL-p3_5b-c8-43" value="" style="endArrow=none;html=1;rounded=0;" parent="1" edge="1">
          <mxGeometry width="50" height="50" relative="1" as="geometry">
            <mxPoint x="310" y="638" as="sourcePoint" />
            <mxPoint x="310" y="618" as="targetPoint" />
          </mxGeometry>
        </mxCell>
        <mxCell id="W02XrHth0DL-p3_5b-c8-44" value="result=&#39;&#39;" style="rounded=0;whiteSpace=wrap;html=1;" parent="1" vertex="1">
          <mxGeometry x="881" y="203.33" width="120" height="60" as="geometry" />
        </mxCell>
        <mxCell id="W02XrHth0DL-p3_5b-c8-45" value="Перебираем символы в тексте" style="shape=hexagon;perimeter=hexagonPerimeter2;whiteSpace=wrap;html=1;fixedSize=1;" parent="1" vertex="1">
          <mxGeometry x="881" y="283.33" width="120" height="80" as="geometry" />
        </mxCell>
        <mxCell id="W02XrHth0DL-p3_5b-c8-46" value="символ в alphabet_lower" style="rhombus;whiteSpace=wrap;html=1;" parent="1" vertex="1">
          <mxGeometry x="881" y="383.33" width="120" height="80" as="geometry" />
        </mxCell>
        <mxCell id="W02XrHth0DL-p3_5b-c8-47" value="В result добавляем остаток от деления индекса символа+к на 26" style="rounded=0;whiteSpace=wrap;html=1;" parent="1" vertex="1">
          <mxGeometry x="751" y="473.33" width="120" height="70" as="geometry" />
        </mxCell>
        <mxCell id="W02XrHth0DL-p3_5b-c8-48" value="символ в alphabet_upper" style="rhombus;whiteSpace=wrap;html=1;" parent="1" vertex="1">
          <mxGeometry x="1041" y="463.33" width="120" height="80" as="geometry" />
        </mxCell>
        <mxCell id="W02XrHth0DL-p3_5b-c8-49" value="В result добавляем остаток от деления индекса символа+к на 26" style="rounded=0;whiteSpace=wrap;html=1;" parent="1" vertex="1">
          <mxGeometry x="921" y="563.33" width="120" height="80" as="geometry" />
        </mxCell>
        <mxCell id="W02XrHth0DL-p3_5b-c8-50" value="В result добавляем символ" style="rounded=0;whiteSpace=wrap;html=1;" parent="1" vertex="1">
          <mxGeometry x="1161" y="563.33" width="120" height="80" as="geometry" />
        </mxCell>
        <mxCell id="W02XrHth0DL-p3_5b-c8-51" value="" style="endArrow=none;html=1;rounded=0;" parent="1" edge="1">
          <mxGeometry width="50" height="50" relative="1" as="geometry">
            <mxPoint x="300" y="98" as="sourcePoint" />
            <mxPoint x="300" y="118" as="targetPoint" />
          </mxGeometry>
        </mxCell>
        <mxCell id="W02XrHth0DL-p3_5b-c8-52" value="" style="endArrow=none;html=1;rounded=0;exitX=0.5;exitY=1;exitDx=0;exitDy=0;entryX=0.5;entryY=0;entryDx=0;entryDy=0;" parent="1" source="W02XrHth0DL-p3_5b-c8-5" target="W02XrHth0DL-p3_5b-c8-6" edge="1">
          <mxGeometry width="50" height="50" relative="1" as="geometry">
            <mxPoint x="290" y="208" as="sourcePoint" />
            <mxPoint x="290" y="228" as="targetPoint" />
          </mxGeometry>
        </mxCell>
        <mxCell id="W02XrHth0DL-p3_5b-c8-57" value="" style="endArrow=none;html=1;rounded=0;exitX=0.5;exitY=1;exitDx=0;exitDy=0;entryX=0.5;entryY=0;entryDx=0;entryDy=0;" parent="1" source="W02XrHth0DL-p3_5b-c8-44" target="W02XrHth0DL-p3_5b-c8-45" edge="1">
          <mxGeometry width="50" height="50" relative="1" as="geometry">
            <mxPoint x="931" y="273.33" as="sourcePoint" />
            <mxPoint x="931" y="293.33" as="targetPoint" />
          </mxGeometry>
        </mxCell>
        <mxCell id="W02XrHth0DL-p3_5b-c8-58" value="" style="endArrow=none;html=1;rounded=0;" parent="1" edge="1">
          <mxGeometry width="50" height="50" relative="1" as="geometry">
            <mxPoint x="941" y="363.33" as="sourcePoint" />
            <mxPoint x="941" y="383.33" as="targetPoint" />
          </mxGeometry>
        </mxCell>
        <mxCell id="W02XrHth0DL-p3_5b-c8-59" value="" style="endArrow=none;html=1;rounded=0;entryX=0.5;entryY=0;entryDx=0;entryDy=0;" parent="1" target="W02XrHth0DL-p3_5b-c8-47" edge="1">
          <mxGeometry width="50" height="50" relative="1" as="geometry">
            <mxPoint x="811" y="423.33" as="sourcePoint" />
            <mxPoint x="841" y="473.33" as="targetPoint" />
          </mxGeometry>
        </mxCell>
        <mxCell id="W02XrHth0DL-p3_5b-c8-60" value="" style="endArrow=none;html=1;rounded=0;entryX=0.5;entryY=0;entryDx=0;entryDy=0;" parent="1" target="W02XrHth0DL-p3_5b-c8-48" edge="1">
          <mxGeometry width="50" height="50" relative="1" as="geometry">
            <mxPoint x="1101" y="423.33" as="sourcePoint" />
            <mxPoint x="1091" y="463.33" as="targetPoint" />
            <Array as="points">
              <mxPoint x="1101" y="453.33" />
            </Array>
          </mxGeometry>
        </mxCell>
        <mxCell id="W02XrHth0DL-p3_5b-c8-61" value="" style="endArrow=none;html=1;rounded=0;exitX=1;exitY=0.5;exitDx=0;exitDy=0;" parent="1" source="W02XrHth0DL-p3_5b-c8-46" edge="1">
          <mxGeometry width="50" height="50" relative="1" as="geometry">
            <mxPoint x="1011" y="413.33" as="sourcePoint" />
            <mxPoint x="1101" y="423.33" as="targetPoint" />
          </mxGeometry>
        </mxCell>
        <mxCell id="W02XrHth0DL-p3_5b-c8-62" value="" style="endArrow=none;html=1;rounded=0;exitX=0;exitY=0.5;exitDx=0;exitDy=0;" parent="1" source="W02XrHth0DL-p3_5b-c8-46" edge="1">
          <mxGeometry width="50" height="50" relative="1" as="geometry">
            <mxPoint x="811" y="413.33" as="sourcePoint" />
            <mxPoint x="811" y="423.33" as="targetPoint" />
          </mxGeometry>
        </mxCell>
        <mxCell id="W02XrHth0DL-p3_5b-c8-63" value="" style="endArrow=none;html=1;rounded=0;entryX=0.5;entryY=0;entryDx=0;entryDy=0;" parent="1" target="W02XrHth0DL-p3_5b-c8-49" edge="1">
          <mxGeometry width="50" height="50" relative="1" as="geometry">
            <mxPoint x="981" y="503.33" as="sourcePoint" />
            <mxPoint x="971" y="583.33" as="targetPoint" />
          </mxGeometry>
        </mxCell>
        <mxCell id="W02XrHth0DL-p3_5b-c8-64" value="" style="endArrow=none;html=1;rounded=0;entryX=0;entryY=0.5;entryDx=0;entryDy=0;" parent="1" source="W02XrHth0DL-p3_5b-c8-84" target="W02XrHth0DL-p3_5b-c8-48" edge="1">
          <mxGeometry width="50" height="50" relative="1" as="geometry">
            <mxPoint x="981" y="503.33" as="sourcePoint" />
            <mxPoint x="1001" y="553.33" as="targetPoint" />
          </mxGeometry>
        </mxCell>
        <mxCell id="W02XrHth0DL-p3_5b-c8-65" value="" style="endArrow=none;html=1;rounded=0;exitX=1;exitY=0.5;exitDx=0;exitDy=0;" parent="1" source="W02XrHth0DL-p3_5b-c8-48" edge="1">
          <mxGeometry width="50" height="50" relative="1" as="geometry">
            <mxPoint x="1191" y="493.33" as="sourcePoint" />
            <mxPoint x="1221" y="503.33" as="targetPoint" />
          </mxGeometry>
        </mxCell>
        <mxCell id="W02XrHth0DL-p3_5b-c8-66" value="" style="endArrow=none;html=1;rounded=0;entryX=0.5;entryY=0;entryDx=0;entryDy=0;" parent="1" target="W02XrHth0DL-p3_5b-c8-50" edge="1">
          <mxGeometry width="50" height="50" relative="1" as="geometry">
            <mxPoint x="1221" y="503.33" as="sourcePoint" />
            <mxPoint x="1211" y="583.33" as="targetPoint" />
          </mxGeometry>
        </mxCell>
        <mxCell id="W02XrHth0DL-p3_5b-c8-67" value="" style="endArrow=none;html=1;rounded=0;exitX=0.5;exitY=1;exitDx=0;exitDy=0;" parent="1" source="W02XrHth0DL-p3_5b-c8-49" edge="1">
          <mxGeometry width="50" height="50" relative="1" as="geometry">
            <mxPoint x="1021" y="673.33" as="sourcePoint" />
            <mxPoint x="981" y="663.33" as="targetPoint" />
          </mxGeometry>
        </mxCell>
        <mxCell id="W02XrHth0DL-p3_5b-c8-68" value="" style="endArrow=none;html=1;rounded=0;" parent="1" edge="1">
          <mxGeometry width="50" height="50" relative="1" as="geometry">
            <mxPoint x="1211" y="643.33" as="sourcePoint" />
            <mxPoint x="1221" y="663.33" as="targetPoint" />
            <Array as="points">
              <mxPoint x="1221" y="643.33" />
            </Array>
          </mxGeometry>
        </mxCell>
        <mxCell id="W02XrHth0DL-p3_5b-c8-69" value="" style="endArrow=none;html=1;rounded=0;" parent="1" edge="1">
          <mxGeometry width="50" height="50" relative="1" as="geometry">
            <mxPoint x="981" y="663.33" as="sourcePoint" />
            <mxPoint x="1221" y="663.33" as="targetPoint" />
          </mxGeometry>
        </mxCell>
        <mxCell id="W02XrHth0DL-p3_5b-c8-70" value="" style="endArrow=none;html=1;rounded=0;exitX=0.5;exitY=1;exitDx=0;exitDy=0;" parent="1" source="W02XrHth0DL-p3_5b-c8-47" edge="1">
          <mxGeometry width="50" height="50" relative="1" as="geometry">
            <mxPoint x="781" y="553.33" as="sourcePoint" />
            <mxPoint x="811" y="683.33" as="targetPoint" />
          </mxGeometry>
        </mxCell>
        <mxCell id="W02XrHth0DL-p3_5b-c8-71" value="" style="endArrow=none;html=1;rounded=0;" parent="1" edge="1">
          <mxGeometry width="50" height="50" relative="1" as="geometry">
            <mxPoint x="811" y="683.33" as="sourcePoint" />
            <mxPoint x="1101" y="683.33" as="targetPoint" />
          </mxGeometry>
        </mxCell>
        <mxCell id="W02XrHth0DL-p3_5b-c8-72" value="" style="endArrow=none;html=1;rounded=0;" parent="1" edge="1">
          <mxGeometry width="50" height="50" relative="1" as="geometry">
            <mxPoint x="941" y="683.33" as="sourcePoint" />
            <mxPoint x="941" y="713.33" as="targetPoint" />
          </mxGeometry>
        </mxCell>
        <mxCell id="W02XrHth0DL-p3_5b-c8-73" value="" style="endArrow=none;html=1;rounded=0;" parent="1" edge="1">
          <mxGeometry width="50" height="50" relative="1" as="geometry">
            <mxPoint x="1101" y="663.33" as="sourcePoint" />
            <mxPoint x="1101" y="683.33" as="targetPoint" />
          </mxGeometry>
        </mxCell>
        <mxCell id="W02XrHth0DL-p3_5b-c8-74" value="YES" style="text;html=1;align=center;verticalAlign=middle;resizable=0;points=[];autosize=1;strokeColor=none;fillColor=none;" parent="1" vertex="1">
          <mxGeometry x="831" y="393.33" width="50" height="30" as="geometry" />
        </mxCell>
        <mxCell id="W02XrHth0DL-p3_5b-c8-75" value="NO" style="text;html=1;align=center;verticalAlign=middle;resizable=0;points=[];autosize=1;strokeColor=none;fillColor=none;" parent="1" vertex="1">
          <mxGeometry x="530" y="298" width="40" height="30" as="geometry" />
        </mxCell>
        <mxCell id="W02XrHth0DL-p3_5b-c8-76" value="NO" style="text;html=1;align=center;verticalAlign=middle;resizable=0;points=[];autosize=1;strokeColor=none;fillColor=none;" parent="1" vertex="1">
          <mxGeometry x="1031" y="393.33" width="40" height="30" as="geometry" />
        </mxCell>
        <mxCell id="W02XrHth0DL-p3_5b-c8-77" value="Вывод зашифрованного текста" style="shape=parallelogram;perimeter=parallelogramPerimeter;whiteSpace=wrap;html=1;fixedSize=1;" parent="1" vertex="1">
          <mxGeometry x="881" y="743.33" width="120" height="80" as="geometry" />
        </mxCell>
        <mxCell id="W02XrHth0DL-p3_5b-c8-78" value="Конец" style="rounded=1;whiteSpace=wrap;html=1;" parent="1" vertex="1">
          <mxGeometry x="881" y="843.33" width="120" height="40" as="geometry" />
        </mxCell>
        <mxCell id="W02XrHth0DL-p3_5b-c8-83" value="" style="endArrow=none;html=1;rounded=0;exitX=0.5;exitY=1;exitDx=0;exitDy=0;" parent="1" source="W02XrHth0DL-p3_5b-c8-77" edge="1">
          <mxGeometry width="50" height="50" relative="1" as="geometry">
            <mxPoint x="941" y="833.33" as="sourcePoint" />
            <mxPoint x="941" y="843.33" as="targetPoint" />
          </mxGeometry>
        </mxCell>
        <mxCell id="W02XrHth0DL-p3_5b-c8-85" value="" style="endArrow=none;html=1;rounded=0;entryX=0.729;entryY=1.007;entryDx=0;entryDy=0;entryPerimeter=0;" parent="1" target="W02XrHth0DL-p3_5b-c8-84" edge="1">
          <mxGeometry width="50" height="50" relative="1" as="geometry">
            <mxPoint x="981" y="503.33" as="sourcePoint" />
            <mxPoint x="1041" y="503.33" as="targetPoint" />
          </mxGeometry>
        </mxCell>
        <mxCell id="W02XrHth0DL-p3_5b-c8-84" value="YES" style="text;html=1;align=center;verticalAlign=middle;resizable=0;points=[];autosize=1;strokeColor=none;fillColor=none;" parent="1" vertex="1">
          <mxGeometry x="1001" y="473.33" width="50" height="30" as="geometry" />
        </mxCell>
        <mxCell id="W02XrHth0DL-p3_5b-c8-86" value="NO" style="text;html=1;align=center;verticalAlign=middle;resizable=0;points=[];autosize=1;strokeColor=none;fillColor=none;" parent="1" vertex="1">
          <mxGeometry x="1171" y="473.33" width="40" height="30" as="geometry" />
        </mxCell>
        <mxCell id="W02XrHth0DL-p3_5b-c8-87" value="" style="rhombus;whiteSpace=wrap;html=1;" parent="1" vertex="1">
          <mxGeometry x="-320" y="381.24999999999994" width="100" height="80" as="geometry" />
        </mxCell>
        <mxCell id="W02XrHth0DL-p3_5b-c8-88" value="в слове больше&lt;div&gt;&amp;nbsp;20 символов&lt;/div&gt;" style="rhombus;whiteSpace=wrap;html=1;" parent="1" vertex="1">
          <mxGeometry x="-330" y="379.99999999999994" width="120" height="80" as="geometry" />
        </mxCell>
        <mxCell id="W02XrHth0DL-p3_5b-c8-89" value="Разделяем слово на части" style="rounded=0;whiteSpace=wrap;html=1;" parent="1" vertex="1">
          <mxGeometry x="-460" y="470.00000000000006" width="120" height="70" as="geometry" />
        </mxCell>
        <mxCell id="W02XrHth0DL-p3_5b-c8-90" value="после слова есть точка" style="rhombus;whiteSpace=wrap;html=1;" parent="1" vertex="1">
          <mxGeometry x="-170" y="460" width="120" height="80" as="geometry" />
        </mxCell>
        <mxCell id="W02XrHth0DL-p3_5b-c8-91" value="не рассматрвиаем текст дальше" style="rounded=0;whiteSpace=wrap;html=1;" parent="1" vertex="1">
          <mxGeometry x="-290" y="560.0000000000001" width="120" height="80" as="geometry" />
        </mxCell>
        <mxCell id="W02XrHth0DL-p3_5b-c8-93" value="" style="endArrow=none;html=1;rounded=0;entryX=0.5;entryY=0;entryDx=0;entryDy=0;" parent="1" target="W02XrHth0DL-p3_5b-c8-89" edge="1">
          <mxGeometry width="50" height="50" relative="1" as="geometry">
            <mxPoint x="-400" y="420" as="sourcePoint" />
            <mxPoint x="-370" y="470.00000000000006" as="targetPoint" />
          </mxGeometry>
        </mxCell>
        <mxCell id="W02XrHth0DL-p3_5b-c8-94" value="" style="endArrow=none;html=1;rounded=0;entryX=0.5;entryY=0;entryDx=0;entryDy=0;" parent="1" target="W02XrHth0DL-p3_5b-c8-90" edge="1">
          <mxGeometry width="50" height="50" relative="1" as="geometry">
            <mxPoint x="-110" y="420" as="sourcePoint" />
            <mxPoint x="-120" y="460" as="targetPoint" />
            <Array as="points">
              <mxPoint x="-110" y="450" />
            </Array>
          </mxGeometry>
        </mxCell>
        <mxCell id="W02XrHth0DL-p3_5b-c8-95" value="" style="endArrow=none;html=1;rounded=0;exitX=1;exitY=0.5;exitDx=0;exitDy=0;" parent="1" source="W02XrHth0DL-p3_5b-c8-88" edge="1">
          <mxGeometry width="50" height="50" relative="1" as="geometry">
            <mxPoint x="-200" y="410" as="sourcePoint" />
            <mxPoint x="-110" y="420" as="targetPoint" />
          </mxGeometry>
        </mxCell>
        <mxCell id="W02XrHth0DL-p3_5b-c8-96" value="" style="endArrow=none;html=1;rounded=0;exitX=0;exitY=0.5;exitDx=0;exitDy=0;" parent="1" source="W02XrHth0DL-p3_5b-c8-88" edge="1">
          <mxGeometry width="50" height="50" relative="1" as="geometry">
            <mxPoint x="-400" y="410" as="sourcePoint" />
            <mxPoint x="-400" y="420" as="targetPoint" />
          </mxGeometry>
        </mxCell>
        <mxCell id="W02XrHth0DL-p3_5b-c8-97" value="" style="endArrow=none;html=1;rounded=0;entryX=0.5;entryY=0;entryDx=0;entryDy=0;" parent="1" target="W02XrHth0DL-p3_5b-c8-91" edge="1">
          <mxGeometry width="50" height="50" relative="1" as="geometry">
            <mxPoint x="-230" y="500.0000000000001" as="sourcePoint" />
            <mxPoint x="-240" y="580.0000000000001" as="targetPoint" />
          </mxGeometry>
        </mxCell>
        <mxCell id="W02XrHth0DL-p3_5b-c8-98" value="" style="endArrow=none;html=1;rounded=0;entryX=0;entryY=0.5;entryDx=0;entryDy=0;" parent="1" source="W02XrHth0DL-p3_5b-c8-110" target="W02XrHth0DL-p3_5b-c8-90" edge="1">
          <mxGeometry width="50" height="50" relative="1" as="geometry">
            <mxPoint x="-230" y="500.0000000000001" as="sourcePoint" />
            <mxPoint x="-210" y="550.0000000000001" as="targetPoint" />
          </mxGeometry>
        </mxCell>
        <mxCell id="W02XrHth0DL-p3_5b-c8-99" value="" style="endArrow=none;html=1;rounded=0;exitX=1;exitY=0.5;exitDx=0;exitDy=0;" parent="1" source="W02XrHth0DL-p3_5b-c8-90" edge="1">
          <mxGeometry width="50" height="50" relative="1" as="geometry">
            <mxPoint x="-20" y="490.00000000000006" as="sourcePoint" />
            <mxPoint x="10" y="500.0000000000001" as="targetPoint" />
          </mxGeometry>
        </mxCell>
        <mxCell id="W02XrHth0DL-p3_5b-c8-100" value="" style="endArrow=none;html=1;rounded=0;entryX=0.5;entryY=0;entryDx=0;entryDy=0;" parent="1" edge="1">
          <mxGeometry width="50" height="50" relative="1" as="geometry">
            <mxPoint x="10" y="500.0000000000001" as="sourcePoint" />
            <mxPoint x="10" y="560.0000000000001" as="targetPoint" />
          </mxGeometry>
        </mxCell>
        <mxCell id="W02XrHth0DL-p3_5b-c8-101" value="" style="endArrow=none;html=1;rounded=0;exitX=0.5;exitY=1;exitDx=0;exitDy=0;" parent="1" source="W02XrHth0DL-p3_5b-c8-91" edge="1">
          <mxGeometry width="50" height="50" relative="1" as="geometry">
            <mxPoint x="-190" y="670" as="sourcePoint" />
            <mxPoint x="-230" y="660" as="targetPoint" />
          </mxGeometry>
        </mxCell>
        <mxCell id="W02XrHth0DL-p3_5b-c8-102" value="" style="endArrow=none;html=1;rounded=0;" parent="1" edge="1">
          <mxGeometry width="50" height="50" relative="1" as="geometry">
            <mxPoint x="10" y="561.2500000000001" as="sourcePoint" />
            <mxPoint x="10" y="660" as="targetPoint" />
            <Array as="points">
              <mxPoint x="10" y="561.2500000000001" />
              <mxPoint x="10" y="640.0000000000001" />
            </Array>
          </mxGeometry>
        </mxCell>
        <mxCell id="W02XrHth0DL-p3_5b-c8-103" value="" style="endArrow=none;html=1;rounded=0;" parent="1" edge="1">
          <mxGeometry width="50" height="50" relative="1" as="geometry">
            <mxPoint x="-230" y="660" as="sourcePoint" />
            <mxPoint x="10" y="660" as="targetPoint" />
          </mxGeometry>
        </mxCell>
        <mxCell id="W02XrHth0DL-p3_5b-c8-104" value="" style="endArrow=none;html=1;rounded=0;exitX=0.5;exitY=1;exitDx=0;exitDy=0;" parent="1" source="W02XrHth0DL-p3_5b-c8-89" edge="1">
          <mxGeometry width="50" height="50" relative="1" as="geometry">
            <mxPoint x="-430" y="550.0000000000001" as="sourcePoint" />
            <mxPoint x="-400" y="680" as="targetPoint" />
          </mxGeometry>
        </mxCell>
        <mxCell id="W02XrHth0DL-p3_5b-c8-105" value="" style="endArrow=none;html=1;rounded=0;" parent="1" edge="1">
          <mxGeometry width="50" height="50" relative="1" as="geometry">
            <mxPoint x="-400" y="680" as="sourcePoint" />
            <mxPoint x="-110" y="680" as="targetPoint" />
          </mxGeometry>
        </mxCell>
        <mxCell id="W02XrHth0DL-p3_5b-c8-106" value="" style="endArrow=none;html=1;rounded=0;" parent="1" edge="1">
          <mxGeometry width="50" height="50" relative="1" as="geometry">
            <mxPoint x="-110" y="660" as="sourcePoint" />
            <mxPoint x="-110" y="680" as="targetPoint" />
          </mxGeometry>
        </mxCell>
        <mxCell id="W02XrHth0DL-p3_5b-c8-107" value="YES" style="text;html=1;align=center;verticalAlign=middle;resizable=0;points=[];autosize=1;strokeColor=none;fillColor=none;" parent="1" vertex="1">
          <mxGeometry x="-380" y="389.99999999999994" width="50" height="30" as="geometry" />
        </mxCell>
        <mxCell id="W02XrHth0DL-p3_5b-c8-108" value="NO" style="text;html=1;align=center;verticalAlign=middle;resizable=0;points=[];autosize=1;strokeColor=none;fillColor=none;" parent="1" vertex="1">
          <mxGeometry x="-180" y="389.99999999999994" width="40" height="30" as="geometry" />
        </mxCell>
        <mxCell id="W02XrHth0DL-p3_5b-c8-109" value="" style="endArrow=none;html=1;rounded=0;entryX=0.729;entryY=1.007;entryDx=0;entryDy=0;entryPerimeter=0;" parent="1" target="W02XrHth0DL-p3_5b-c8-110" edge="1">
          <mxGeometry width="50" height="50" relative="1" as="geometry">
            <mxPoint x="-230" y="500.0000000000001" as="sourcePoint" />
            <mxPoint x="-170" y="500.0000000000001" as="targetPoint" />
          </mxGeometry>
        </mxCell>
        <mxCell id="W02XrHth0DL-p3_5b-c8-110" value="YES" style="text;html=1;align=center;verticalAlign=middle;resizable=0;points=[];autosize=1;strokeColor=none;fillColor=none;" parent="1" vertex="1">
          <mxGeometry x="-210" y="470.00000000000006" width="50" height="30" as="geometry" />
        </mxCell>
        <mxCell id="W02XrHth0DL-p3_5b-c8-111" value="NO" style="text;html=1;align=center;verticalAlign=middle;resizable=0;points=[];autosize=1;strokeColor=none;fillColor=none;" parent="1" vertex="1">
          <mxGeometry x="-40" y="470.00000000000006" width="40" height="30" as="geometry" />
        </mxCell>
        <mxCell id="W02XrHth0DL-p3_5b-c8-132" value="" style="rhombus;whiteSpace=wrap;html=1;" parent="1" vertex="1">
          <mxGeometry x="-308.67" y="702.58" width="100" height="80" as="geometry" />
        </mxCell>
        <mxCell id="W02XrHth0DL-p3_5b-c8-133" value="В конце текста есть точка" style="rhombus;whiteSpace=wrap;html=1;" parent="1" vertex="1">
          <mxGeometry x="-318.67" y="701.33" width="120" height="80" as="geometry" />
        </mxCell>
        <mxCell id="W02XrHth0DL-p3_5b-c8-136" value="Выводим ошибку" style="rounded=0;whiteSpace=wrap;html=1;" parent="1" vertex="1">
          <mxGeometry x="-168.67000000000002" y="821.33" width="120" height="80" as="geometry" />
        </mxCell>
        <mxCell id="W02XrHth0DL-p3_5b-c8-137" value="" style="endArrow=none;html=1;rounded=0;" parent="1" edge="1">
          <mxGeometry width="50" height="50" relative="1" as="geometry">
            <mxPoint x="-388.67" y="741.33" as="sourcePoint" />
            <mxPoint x="-388.67" y="881.33" as="targetPoint" />
          </mxGeometry>
        </mxCell>
        <mxCell id="W02XrHth0DL-p3_5b-c8-138" value="" style="endArrow=none;html=1;rounded=0;" parent="1" edge="1">
          <mxGeometry width="50" height="50" relative="1" as="geometry">
            <mxPoint x="-98.67" y="741.33" as="sourcePoint" />
            <mxPoint x="-98.67" y="821.33" as="targetPoint" />
            <Array as="points">
              <mxPoint x="-98.67" y="771.33" />
            </Array>
          </mxGeometry>
        </mxCell>
        <mxCell id="W02XrHth0DL-p3_5b-c8-139" value="" style="endArrow=none;html=1;rounded=0;exitX=1;exitY=0.5;exitDx=0;exitDy=0;" parent="1" source="W02XrHth0DL-p3_5b-c8-133" edge="1">
          <mxGeometry width="50" height="50" relative="1" as="geometry">
            <mxPoint x="-188.67000000000002" y="731.33" as="sourcePoint" />
            <mxPoint x="-98.67" y="741.33" as="targetPoint" />
          </mxGeometry>
        </mxCell>
        <mxCell id="W02XrHth0DL-p3_5b-c8-140" value="" style="endArrow=none;html=1;rounded=0;exitX=0;exitY=0.5;exitDx=0;exitDy=0;" parent="1" source="W02XrHth0DL-p3_5b-c8-133" edge="1">
          <mxGeometry width="50" height="50" relative="1" as="geometry">
            <mxPoint x="-388.67" y="731.33" as="sourcePoint" />
            <mxPoint x="-388.67" y="741.33" as="targetPoint" />
          </mxGeometry>
        </mxCell>
        <mxCell id="W02XrHth0DL-p3_5b-c8-142" value="" style="endArrow=none;html=1;rounded=0;entryX=0;entryY=0.5;entryDx=0;entryDy=0;" parent="1" edge="1">
          <mxGeometry width="50" height="50" relative="1" as="geometry">
            <mxPoint x="-158.67000000000002" y="821.33" as="sourcePoint" />
            <mxPoint x="-158.67000000000002" y="821.33" as="targetPoint" />
          </mxGeometry>
        </mxCell>
        <mxCell id="W02XrHth0DL-p3_5b-c8-148" value="" style="endArrow=none;html=1;rounded=0;exitX=0.5;exitY=1;exitDx=0;exitDy=0;" parent="1" edge="1">
          <mxGeometry width="50" height="50" relative="1" as="geometry">
            <mxPoint x="-388.67" y="861.33" as="sourcePoint" />
            <mxPoint x="-388.67" y="931.33" as="targetPoint" />
          </mxGeometry>
        </mxCell>
        <mxCell id="W02XrHth0DL-p3_5b-c8-149" value="" style="endArrow=none;html=1;rounded=0;" parent="1" edge="1">
          <mxGeometry width="50" height="50" relative="1" as="geometry">
            <mxPoint x="-388.67" y="931.33" as="sourcePoint" />
            <mxPoint x="-98.67" y="931.33" as="targetPoint" />
            <Array as="points">
              <mxPoint x="-228.67000000000002" y="931.33" />
            </Array>
          </mxGeometry>
        </mxCell>
        <mxCell id="W02XrHth0DL-p3_5b-c8-150" value="" style="endArrow=none;html=1;rounded=0;exitX=0.585;exitY=1.07;exitDx=0;exitDy=0;exitPerimeter=0;" parent="1" source="W02XrHth0DL-p3_5b-c8-136" edge="1">
          <mxGeometry width="50" height="50" relative="1" as="geometry">
            <mxPoint x="-98.67" y="981.33" as="sourcePoint" />
            <mxPoint x="-98.67" y="931.33" as="targetPoint" />
          </mxGeometry>
        </mxCell>
        <mxCell id="W02XrHth0DL-p3_5b-c8-151" value="YES" style="text;html=1;align=center;verticalAlign=middle;resizable=0;points=[];autosize=1;strokeColor=none;fillColor=none;" parent="1" vertex="1">
          <mxGeometry x="-368.67" y="711.33" width="50" height="30" as="geometry" />
        </mxCell>
        <mxCell id="W02XrHth0DL-p3_5b-c8-152" value="NO" style="text;html=1;align=center;verticalAlign=middle;resizable=0;points=[];autosize=1;strokeColor=none;fillColor=none;" parent="1" vertex="1">
          <mxGeometry x="-168.67000000000002" y="711.33" width="40" height="30" as="geometry" />
        </mxCell>
        <mxCell id="W02XrHth0DL-p3_5b-c8-157" value="Начало" style="rounded=1;whiteSpace=wrap;html=1;" parent="1" vertex="1">
          <mxGeometry x="-330" y="18.75" width="120" height="40" as="geometry" />
        </mxCell>
        <mxCell id="W02XrHth0DL-p3_5b-c8-158" value="alphabet_lower= все строчные буквы английского алфавита" style="rounded=0;whiteSpace=wrap;html=1;" parent="1" vertex="1">
          <mxGeometry x="-330" y="78.75" width="120" height="80" as="geometry" />
        </mxCell>
        <mxCell id="W02XrHth0DL-p3_5b-c8-159" value="alphabet_upper=все заглавные буквы английского алфавита" style="rounded=0;whiteSpace=wrap;html=1;" parent="1" vertex="1">
          <mxGeometry x="-330" y="178.75" width="120" height="80" as="geometry" />
        </mxCell>
        <mxCell id="W02XrHth0DL-p3_5b-c8-160" value="k=0&lt;div&gt;word=&#39;&#39;&lt;/div&gt;&lt;div&gt;&lt;span style=&quot;background-color: transparent; color: light-dark(rgb(0, 0, 0), rgb(255, 255, 255));&quot;&gt;count=0(счётчик)&lt;/span&gt;&lt;/div&gt;" style="rounded=0;whiteSpace=wrap;html=1;" parent="1" vertex="1">
          <mxGeometry x="-330" y="278.75" width="120" height="80" as="geometry" />
        </mxCell>
        <mxCell id="W02XrHth0DL-p3_5b-c8-161" value="" style="endArrow=none;html=1;rounded=0;exitX=0.5;exitY=1;exitDx=0;exitDy=0;entryX=0.5;entryY=0;entryDx=0;entryDy=0;" parent="1" source="W02XrHth0DL-p3_5b-c8-159" target="W02XrHth0DL-p3_5b-c8-160" edge="1">
          <mxGeometry width="50" height="50" relative="1" as="geometry">
            <mxPoint x="-280" y="268.75" as="sourcePoint" />
            <mxPoint x="-280" y="288.75" as="targetPoint" />
          </mxGeometry>
        </mxCell>
        <mxCell id="W02XrHth0DL-p3_5b-c8-162" value="" style="endArrow=none;html=1;rounded=0;entryX=0.5;entryY=0;entryDx=0;entryDy=0;" parent="1" target="W02XrHth0DL-p3_5b-c8-159" edge="1">
          <mxGeometry width="50" height="50" relative="1" as="geometry">
            <mxPoint x="-270" y="168.75" as="sourcePoint" />
            <mxPoint x="-260" y="178.75" as="targetPoint" />
            <Array as="points">
              <mxPoint x="-270" y="158.75" />
            </Array>
          </mxGeometry>
        </mxCell>
        <mxCell id="W02XrHth0DL-p3_5b-c8-163" value="" style="endArrow=none;html=1;rounded=0;exitX=0.5;exitY=1;exitDx=0;exitDy=0;" parent="1" source="W02XrHth0DL-p3_5b-c8-157" edge="1">
          <mxGeometry width="50" height="50" relative="1" as="geometry">
            <mxPoint x="-280" y="58.75" as="sourcePoint" />
            <mxPoint x="-280" y="78.75" as="targetPoint" />
            <Array as="points">
              <mxPoint x="-270" y="78.75" />
            </Array>
          </mxGeometry>
        </mxCell>
        <mxCell id="W02XrHth0DL-p3_5b-c8-164" value="" style="endArrow=none;html=1;rounded=0;exitX=0.5;exitY=1;exitDx=0;exitDy=0;entryX=0.5;entryY=0;entryDx=0;entryDy=0;" parent="1" source="W02XrHth0DL-p3_5b-c8-160" target="W02XrHth0DL-p3_5b-c8-88" edge="1">
          <mxGeometry width="50" height="50" relative="1" as="geometry">
            <mxPoint x="-280" y="370" as="sourcePoint" />
            <mxPoint x="-280" y="390" as="targetPoint" />
          </mxGeometry>
        </mxCell>
        <mxCell id="W02XrHth0DL-p3_5b-c8-165" value="" style="endArrow=none;html=1;rounded=0;exitX=0.5;exitY=1;exitDx=0;exitDy=0;entryX=0.5;entryY=0;entryDx=0;entryDy=0;" parent="1" edge="1">
          <mxGeometry width="50" height="50" relative="1" as="geometry">
            <mxPoint x="-260" y="680" as="sourcePoint" />
            <mxPoint x="-260" y="700" as="targetPoint" />
          </mxGeometry>
        </mxCell>
        <mxCell id="W02XrHth0DL-p3_5b-c8-166" value="А" style="ellipse;whiteSpace=wrap;html=1;aspect=fixed;" parent="1" vertex="1">
          <mxGeometry x="-278.67" y="960" width="40" height="40" as="geometry" />
        </mxCell>
        <mxCell id="W02XrHth0DL-p3_5b-c8-167" value="" style="endArrow=none;html=1;rounded=0;entryX=0.5;entryY=0;entryDx=0;entryDy=0;" parent="1" target="W02XrHth0DL-p3_5b-c8-166" edge="1">
          <mxGeometry width="50" height="50" relative="1" as="geometry">
            <mxPoint x="-259" y="930" as="sourcePoint" />
            <mxPoint x="-280" y="970" as="targetPoint" />
          </mxGeometry>
        </mxCell>
        <mxCell id="W02XrHth0DL-p3_5b-c8-168" value="А" style="ellipse;whiteSpace=wrap;html=1;aspect=fixed;direction=south;" parent="1" vertex="1">
          <mxGeometry x="280.00000000000006" y="58" width="40" height="40" as="geometry" />
        </mxCell>
        <mxCell id="W02XrHth0DL-p3_5b-c8-169" value="В" style="ellipse;whiteSpace=wrap;html=1;aspect=fixed;" parent="1" vertex="1">
          <mxGeometry x="299.4800000000001" y="883.33" width="40" height="40" as="geometry" />
        </mxCell>
        <mxCell id="W02XrHth0DL-p3_5b-c8-170" value="" style="endArrow=none;html=1;rounded=0;entryX=0.5;entryY=0;entryDx=0;entryDy=0;" parent="1" target="W02XrHth0DL-p3_5b-c8-169" edge="1">
          <mxGeometry width="50" height="50" relative="1" as="geometry">
            <mxPoint x="319.48" y="872" as="sourcePoint" />
            <mxPoint x="319.48" y="762" as="targetPoint" />
          </mxGeometry>
        </mxCell>
        <mxCell id="W02XrHth0DL-p3_5b-c8-171" value="В" style="ellipse;whiteSpace=wrap;html=1;aspect=fixed;" parent="1" vertex="1">
          <mxGeometry x="921" y="138.75" width="40" height="40" as="geometry" />
        </mxCell>
        <mxCell id="W02XrHth0DL-p3_5b-c8-172" value="" style="endArrow=none;html=1;rounded=0;exitX=0.5;exitY=0;exitDx=0;exitDy=0;" parent="1" source="W02XrHth0DL-p3_5b-c8-44" edge="1">
          <mxGeometry width="50" height="50" relative="1" as="geometry">
            <mxPoint x="1011" y="323.33" as="sourcePoint" />
            <mxPoint x="941" y="183.33" as="targetPoint" />
          </mxGeometry>
        </mxCell>
        <mxCell id="yMbOwZwP1nUyq0SGYG_x-1" value="" style="endArrow=none;html=1;rounded=0;" edge="1" parent="1">
          <mxGeometry width="50" height="50" relative="1" as="geometry">
            <mxPoint x="310" y="638.89" as="sourcePoint" />
            <mxPoint x="80" y="639" as="targetPoint" />
          </mxGeometry>
        </mxCell>
        <mxCell id="yMbOwZwP1nUyq0SGYG_x-2" value="" style="endArrow=none;html=1;rounded=0;" edge="1" parent="1">
          <mxGeometry width="50" height="50" relative="1" as="geometry">
            <mxPoint x="80" y="160" as="sourcePoint" />
            <mxPoint x="80" y="640" as="targetPoint" />
          </mxGeometry>
        </mxCell>
        <mxCell id="yMbOwZwP1nUyq0SGYG_x-3" value="" style="endArrow=none;html=1;rounded=0;" edge="1" parent="1">
          <mxGeometry width="50" height="50" relative="1" as="geometry">
            <mxPoint x="220" y="160" as="sourcePoint" />
            <mxPoint x="80" y="160" as="targetPoint" />
          </mxGeometry>
        </mxCell>
        <mxCell id="yMbOwZwP1nUyq0SGYG_x-4" value="" style="endArrow=none;html=1;rounded=0;" edge="1" parent="1">
          <mxGeometry width="50" height="50" relative="1" as="geometry">
            <mxPoint x="600" y="160" as="sourcePoint" />
            <mxPoint x="360" y="158.75" as="targetPoint" />
          </mxGeometry>
        </mxCell>
        <mxCell id="yMbOwZwP1nUyq0SGYG_x-5" value="" style="endArrow=none;html=1;rounded=0;" edge="1" parent="1">
          <mxGeometry width="50" height="50" relative="1" as="geometry">
            <mxPoint x="600" y="650" as="sourcePoint" />
            <mxPoint x="600" y="160" as="targetPoint" />
          </mxGeometry>
        </mxCell>
        <mxCell id="yMbOwZwP1nUyq0SGYG_x-6" value="" style="endArrow=none;html=1;rounded=0;" edge="1" parent="1">
          <mxGeometry width="50" height="50" relative="1" as="geometry">
            <mxPoint x="600" y="650" as="sourcePoint" />
            <mxPoint x="310" y="650" as="targetPoint" />
          </mxGeometry>
        </mxCell>
        <mxCell id="yMbOwZwP1nUyq0SGYG_x-7" value="" style="endArrow=classic;html=1;rounded=0;entryX=0;entryY=0.5;entryDx=0;entryDy=0;" edge="1" parent="1">
          <mxGeometry width="50" height="50" relative="1" as="geometry">
            <mxPoint x="140" y="158.75" as="sourcePoint" />
            <mxPoint x="240" y="158.75" as="targetPoint" />
          </mxGeometry>
        </mxCell>
        <mxCell id="yMbOwZwP1nUyq0SGYG_x-8" value="" style="endArrow=none;html=1;rounded=0;" edge="1" parent="1">
          <mxGeometry width="50" height="50" relative="1" as="geometry">
            <mxPoint x="310" y="660" as="sourcePoint" />
            <mxPoint x="310" y="650" as="targetPoint" />
          </mxGeometry>
        </mxCell>
        <mxCell id="yMbOwZwP1nUyq0SGYG_x-9" value="" style="endArrow=none;html=1;rounded=0;" edge="1" parent="1">
          <mxGeometry width="50" height="50" relative="1" as="geometry">
            <mxPoint x="1311" y="723.33" as="sourcePoint" />
            <mxPoint x="1311" y="323.33" as="targetPoint" />
          </mxGeometry>
        </mxCell>
        <mxCell id="yMbOwZwP1nUyq0SGYG_x-10" value="" style="endArrow=none;html=1;rounded=0;" edge="1" parent="1">
          <mxGeometry width="50" height="50" relative="1" as="geometry">
            <mxPoint x="1311" y="322.33" as="sourcePoint" />
            <mxPoint x="1001" y="322.5" as="targetPoint" />
          </mxGeometry>
        </mxCell>
        <mxCell id="yMbOwZwP1nUyq0SGYG_x-11" value="" style="endArrow=none;html=1;rounded=0;" edge="1" parent="1">
          <mxGeometry width="50" height="50" relative="1" as="geometry">
            <mxPoint x="740" y="713.33" as="sourcePoint" />
            <mxPoint x="740" y="321.33" as="targetPoint" />
          </mxGeometry>
        </mxCell>
        <mxCell id="yMbOwZwP1nUyq0SGYG_x-12" value="" style="endArrow=none;html=1;rounded=0;" edge="1" parent="1">
          <mxGeometry width="50" height="50" relative="1" as="geometry">
            <mxPoint x="851" y="323.33" as="sourcePoint" />
            <mxPoint x="741" y="323.33" as="targetPoint" />
          </mxGeometry>
        </mxCell>
        <mxCell id="yMbOwZwP1nUyq0SGYG_x-13" value="" style="endArrow=none;html=1;rounded=0;" edge="1" parent="1">
          <mxGeometry width="50" height="50" relative="1" as="geometry">
            <mxPoint x="941" y="713.33" as="sourcePoint" />
            <mxPoint x="741" y="713.33" as="targetPoint" />
          </mxGeometry>
        </mxCell>
        <mxCell id="yMbOwZwP1nUyq0SGYG_x-14" value="" style="endArrow=none;html=1;rounded=0;" edge="1" parent="1">
          <mxGeometry width="50" height="50" relative="1" as="geometry">
            <mxPoint x="1311" y="723.33" as="sourcePoint" />
            <mxPoint x="941" y="723.33" as="targetPoint" />
          </mxGeometry>
        </mxCell>
        <mxCell id="yMbOwZwP1nUyq0SGYG_x-16" value="" style="endArrow=none;html=1;rounded=0;exitX=0.5;exitY=0;exitDx=0;exitDy=0;" edge="1" parent="1" source="W02XrHth0DL-p3_5b-c8-77">
          <mxGeometry width="50" height="50" relative="1" as="geometry">
            <mxPoint x="931" y="1113.33" as="sourcePoint" />
            <mxPoint x="941" y="723.33" as="targetPoint" />
          </mxGeometry>
        </mxCell>
        <mxCell id="yMbOwZwP1nUyq0SGYG_x-17" value="" style="endArrow=classic;html=1;rounded=0;entryX=0;entryY=0.5;entryDx=0;entryDy=0;" edge="1" parent="1" target="W02XrHth0DL-p3_5b-c8-45">
          <mxGeometry width="50" height="50" relative="1" as="geometry">
            <mxPoint x="831" y="323.33" as="sourcePoint" />
            <mxPoint x="951" y="563.33" as="targetPoint" />
          </mxGeometry>
        </mxCell>
      </root>
    </mxGraphModel>
  </diagram>
</mxfile>
